<svg xmlns="http://www.w3.org/2000/svg" xmlns:xlink="http://www.w3.org/1999/xlink" version="1.1" x="0px" y="0px" viewBox="0 0 48 60" style="enable-background:new 0 0 48 48;" xml:space="preserve"><style type="text/css">
	.st0{display:none;}
</style><g><g><path fill="#fff" d="M19.5,29.8c0.2,0.1,0.3,0.1,0.5,0.1c0.2,0,0.4,0,0.5-0.1l8-4.8c0.3-0.2,0.5-0.5,0.5-0.9s-0.2-0.7-0.5-0.9l-8-4.8    c-0.3-0.2-0.7-0.2-1,0C19.2,18.6,19,19,19,19.3v9.6C19,29.3,19.2,29.6,19.5,29.8z M21,21.1l5.1,3l-5.1,3V21.1z"/><path fill="#fff" d="M40,24.1c0-8.8-7.2-16-16-16c-0.6,0-1,0.4-1,1s0.4,1,1,1c7.7,0,14,6.3,14,14s-6.3,14-14,14c-0.6,0-1,0.4-1,1    c0,0.1,0,0.3,0.1,0.4c0,0,0,0,0,0c0,0.1,0.1,0.2,0.2,0.3c0.2,0.2,0.4,0.3,0.7,0.3c0,0,0,0,0,0C32.8,40.1,40,33,40,24.1z"/><path fill="#fff" d="M10,30.6c0.1,0,0.2,0,0.4-0.1c0.5-0.2,0.8-0.8,0.6-1.3c-0.2-0.5-0.8-0.8-1.3-0.6c-0.5,0.2-0.8,0.8-0.6,1.3    C9.2,30.3,9.6,30.6,10,30.6z"/><path fill="#fff" d="M17.8,38.9c0.1,0,0.3,0.1,0.4,0.1c0.4,0,0.8-0.2,0.9-0.6c0.2-0.5,0-1.1-0.5-1.3c-0.5-0.2-1.1,0-1.3,0.5    C17,38.1,17.3,38.7,17.8,38.9z"/><path fill="#fff" d="M12.5,33.9c-0.4,0.4-0.4,1,0,1.4c0.2,0.2,0.5,0.3,0.7,0.3c0.3,0,0.5-0.1,0.7-0.3c0.4-0.4,0.4-1,0-1.4    C13.6,33.5,12.9,33.5,12.5,33.9z"/><path fill="#fff" d="M10.6,17.4c-0.5-0.2-1.1,0-1.3,0.5c-0.2,0.5,0,1.1,0.5,1.3c0.1,0.1,0.3,0.1,0.4,0.1c0.4,0,0.8-0.2,0.9-0.6    C11.3,18.2,11.1,17.6,10.6,17.4z"/><path fill="#fff" d="M18.2,9.2c-0.5,0.2-0.8,0.8-0.6,1.3c0.2,0.4,0.5,0.6,0.9,0.6c0.1,0,0.2,0,0.4-0.1c0.5-0.2,0.8-0.8,0.6-1.3    C19.3,9.3,18.7,9,18.2,9.2z"/><circle cx="9" cy="24.1" r="1"/><path fill="#fff" d="M14.3,12.7c-0.4-0.4-1-0.4-1.4,0c-0.4,0.4-0.4,1,0,1.4c0.2,0.2,0.4,0.3,0.7,0.3c0.3,0,0.5-0.1,0.7-0.3v0    C14.6,13.7,14.7,13.1,14.3,12.7z"/></g></g></svg>