<svg xmlns="http://www.w3.org/2000/svg" xmlns:xlink="http://www.w3.org/1999/xlink" version="1.1" x="0px" y="0px" viewBox="0 0 48 60" style="enable-background:new 0 0 48 48;" xml:space="preserve"><style type="text/css">
	.st0{display:none;}
</style><g><g><path fill="#fff" d="M12.1,36.9l6.7-1c0.2,0,0.4-0.1,0.6-0.3l17.3-17.3c0.4-0.4,0.4-1,0-1.4l-5.8-5.8c-0.4-0.4-1-0.4-1.4,0L12.3,28.5    c-0.2,0.2-0.3,0.4-0.3,0.6l-1,6.7c0,0.3,0.1,0.6,0.3,0.8c0.2,0.2,0.4,0.3,0.7,0.3C12,36.9,12.1,36.9,12.1,36.9z M13.9,29.7    l16.3-16.3l4.3,4.3L18.2,34l-5.1,0.7L13.9,29.7z"/></g></g></svg>