<svg xmlns="http://www.w3.org/2000/svg" xmlns:xlink="http://www.w3.org/1999/xlink" version="1.1" x="0px" y="0px" viewBox="0 0 48 60" style="enable-background:new 0 0 48 48;" xml:space="preserve"><style type="text/css">
	.st0{display:none;}
</style><g><g><path fill="#fff" d="M37,39V20c0-0.3-0.1-0.5-0.3-0.7l-12-11c-0.4-0.3-1-0.3-1.4,0l-12,11C11.1,19.5,11,19.7,11,20v19c0,0.6,0.4,1,1,1h8.7    c0.6,0,1-0.4,1-1v-9h4v9c0,0.6,0.4,1,1,1H36C36.6,40,37,39.6,37,39z M35,38h-7.3v-9c0-0.6-0.4-1-1-1h-6c-0.6,0-1,0.4-1,1v9H13    V20.4l11-10.1l11,10.1V38z"/></g></g></svg>