<svg xmlns="http://www.w3.org/2000/svg" xmlns:xlink="http://www.w3.org/1999/xlink" version="1.1" x="0px" y="0px" viewBox="0 0 48 60" style="enable-background:new 0 0 48 48;" xml:space="preserve"><style type="text/css">
	.st0{display:none;}
</style><g><g><path fill="#fff" d="M24,35.9c0.3,0,0.5-0.1,0.7-0.3l10.1-10.1c2.9-2.9,2.9-7.7,0-10.6s-7.7-2.9-10.6,0L24,15.1l-0.2-0.2    c-2.9-2.9-7.7-2.9-10.6,0s-2.9,7.7,0,10.6l10.1,10.1C23.5,35.8,23.7,35.9,24,35.9z M14.6,16.3c1.1-1.1,2.5-1.6,3.9-1.6    s2.8,0.5,3.9,1.6l0.9,0.9c0.4,0.4,1,0.4,1.4,0l0.9-0.9c2.1-2.1,5.6-2.1,7.8,0c2.1,2.1,2.1,5.6,0,7.8L24,33.5l-9.4-9.4    C12.5,22,12.5,18.5,14.6,16.3z"/></g></g><text x="0" y="63" fill="#000000" font-size="5px" font-weight="bold" font-family="'Helvetica Neue', Helvetica, Arial-Unicode, Arial, Sans-serif">Created by tezar tantular</text><text x="0" y="68" fill="#000000" font-size="5px" font-weight="bold" font-family="'Helvetica Neue', Helvetica, Arial-Unicode, Arial, Sans-serif">from the Noun Project</text></svg>