<svg xmlns="http://www.w3.org/2000/svg" xmlns:xlink="http://www.w3.org/1999/xlink" version="1.1" x="0px" y="0px" viewBox="0 0 48 60" style="enable-background:new 0 0 48 48;" xml:space="preserve"><style type="text/css">
	.st0{display:none;}
</style><g><g><path fill="#fff" d="M12.7,36.7c0.3,0,0.5-0.1,0.7-0.3c0.4-0.4,0.4-1,0-1.4c-5.9-5.9-5.9-15.4,0-21.2c0.4-0.4,0.4-1,0-1.4s-1-0.4-1.4,0    C5.4,19,5.4,29.8,12,36.4C12.2,36.6,12.5,36.7,12.7,36.7z"/><path fill="#fff" d="M34.7,12.4c-0.4,0.4-0.4,1,0,1.4c5.9,5.9,5.9,15.4,0,21.2c-0.4,0.4-0.4,1,0,1.4c0.2,0.2,0.5,0.3,0.7,0.3s0.5-0.1,0.7-0.3    c6.6-6.6,6.6-17.4,0-24.1C35.7,12,35.1,12,34.7,12.4z"/><path fill="#fff" d="M17.7,16.6c-0.4-0.4-1-0.4-1.4,0c-4.3,4.3-4.3,11.3,0,15.6c0.2,0.2,0.5,0.3,0.7,0.3s0.5-0.1,0.7-0.3c0.4-0.4,0.4-1,0-1.4    c-3.5-3.5-3.5-9.2,0-12.7C18.1,17.7,18.1,17,17.7,16.6z"/><path fill="#fff" d="M31.8,16.6c-0.4-0.4-1-0.4-1.4,0s-0.4,1,0,1.4c3.5,3.5,3.5,9.2,0,12.7c-0.4,0.4-0.4,1,0,1.4c0.2,0.2,0.5,0.3,0.7,0.3    s0.5-0.1,0.7-0.3C36.1,27.9,36.1,20.9,31.8,16.6z"/><path fill="#fff" d="M29.1,24.4c0-2.8-2.2-5-5-5s-5,2.2-5,5c0,2.8,2.2,5,5,5S29.1,27.2,29.1,24.4z M21.1,24.4c0-1.7,1.3-3,3-3s3,1.3,3,3    c0,1.7-1.3,3-3,3S21.1,26.1,21.1,24.4z"/></g></g></svg>