<svg xmlns="http://www.w3.org/2000/svg" xmlns:xlink="http://www.w3.org/1999/xlink" version="1.1" x="0px" y="0px" viewBox="0 0 48 60" style="enable-background:new 0 0 48 48;" xml:space="preserve"><style type="text/css">
	.st0{display:none;}
</style><g><g><path fill="#fff" d="M37,34c0-0.6-0.4-1-1-1h-1V22.4c0-5.6-4.5-10.1-10-10.3V9c0-0.6-0.4-1-1-1s-1,0.4-1,1v3c-5.5,0.2-10,4.7-10,10.3V33h-1    c-0.6,0-1,0.4-1,1s0.4,1,1,1h2h4.1c0.5,2.8,2.9,5,5.9,5s5.4-2.2,5.9-5H34h2C36.6,35,37,34.6,37,34z M24,38c-1.9,0-3.4-1.3-3.9-3    h7.7C27.4,36.7,25.9,38,24,38z M15,33V22.4c0-4.6,3.7-8.4,8.4-8.4h1.3c4.6,0,8.4,3.7,8.4,8.4V33H15z"/></g></g><text x="0" y="63" fill="#000000" font-size="5px" font-weight="bold" font-family="'Helvetica Neue', Helvetica, Arial-Unicode, Arial, Sans-serif">Created by tezar tantular</text><text x="0" y="68" fill="#000000" font-size="5px" font-weight="bold" font-family="'Helvetica Neue', Helvetica, Arial-Unicode, Arial, Sans-serif">from the Noun Project</text></svg>