<svg xmlns="http://www.w3.org/2000/svg" xmlns:xlink="http://www.w3.org/1999/xlink" version="1.1" x="0px" y="0px" viewBox="0 0 48 60" style="enable-background:new 0 0 48 48;" xml:space="preserve"><style type="text/css">
	.st0{display:none;}
</style><g><g><path fill="#ccc" d="M22,11.3c-6.1,0-11,4.9-11,11s4.9,11,11,11c2.7,0,5.2-1,7.2-2.7l5.1,5.1c0.2,0.2,0.5,0.3,0.7,0.3s0.5-0.1,0.7-0.3    c0.4-0.4,0.4-1,0-1.4l-5.2-5.2c1.5-1.9,2.4-4.3,2.4-6.9C33,16.2,28.1,11.3,22,11.3z M13,22.3c0-5,4-9,9-9s9,4,9,9s-4,9-9,9    S13,27.2,13,22.3z"/></g></g><text x="0" y="63" fill="#000000" font-size="5px" font-weight="bold" font-family="'Helvetica Neue', Helvetica, Arial-Unicode, Arial, Sans-serif">Created by tezar tantular</text><text x="0" y="68" fill="#000000" font-size="5px" font-weight="bold" font-family="'Helvetica Neue', Helvetica, Arial-Unicode, Arial, Sans-serif">from the Noun Project</text></svg>