<svg xmlns="http://www.w3.org/2000/svg" xmlns:xlink="http://www.w3.org/1999/xlink" version="1.1" x="0px" y="0px" viewBox="0 0 48 60" style="enable-background:new 0 0 48 48;" xml:space="preserve"><style type="text/css">
	.st0{display:none;}
</style><g><g><path fill="#fff" d="M12.9,32v6c0,0.6,0.4,1,1,1h20c0.6,0,1-0.4,1-1v-6c0-4.6-2.9-8.6-6.9-10.2c1.9-1.3,3.1-3.4,3.1-5.8c0-3.9-3.1-7-7-7    s-7,3.1-7,7c0,2.4,1.2,4.4,3,5.7C15.9,23.3,12.9,27.3,12.9,32z M19.1,16c0-2.8,2.2-5,5-5s5,2.2,5,5s-2.2,5-5,5S19.1,18.8,19.1,16z     M23.9,23c5,0,9,4,9,9v5h-18v-5C14.9,27,18.9,23,23.9,23z"/></g></g></svg>